<svg xmlns="http://www.w3.org/2000/svg" xmlns:xlink="http://www.w3.org/1999/xlink" width="500" zoomAndPan="magnify" viewBox="0 0 375 374.999991" height="500" preserveAspectRatio="xMidYMid meet" version="1.0"><defs><g/><clipPath id="b6e0f1a360"><path d="M 53.398438 36.480469 L 321.898438 36.480469 L 321.898438 274 L 53.398438 274 Z M 53.398438 36.480469 " clip-rule="nonzero"/></clipPath></defs><g fill="#d9d9d9" fill-opacity="1"><g transform="translate(92.91889, 309.12244)"><g><path d="M 18.984375 -1.828125 C 18.066406 -1.097656 16.875 -0.53125 15.40625 -0.125 C 13.945312 0.269531 12.148438 0.46875 10.015625 0.46875 C 7.890625 0.46875 5.625 0.273438 3.21875 -0.109375 L 3.21875 -24.8125 C 5.644531 -25.207031 7.75 -25.40625 9.53125 -25.40625 C 11.3125 -25.40625 12.773438 -25.234375 13.921875 -24.890625 C 15.066406 -24.554688 16 -24.101562 16.71875 -23.53125 C 18.144531 -22.414062 18.859375 -20.972656 18.859375 -19.203125 C 18.859375 -17.429688 18.210938 -15.96875 16.921875 -14.8125 C 18.453125 -14.332031 19.632812 -13.429688 20.46875 -12.109375 C 21.226562 -10.921875 21.609375 -9.601562 21.609375 -8.15625 C 21.609375 -6.71875 21.398438 -5.484375 20.984375 -4.453125 C 20.566406 -3.429688 19.898438 -2.554688 18.984375 -1.828125 Z M 8.1875 -15.5 C 8.71875 -15.414062 9.375 -15.375 10.15625 -15.375 C 10.945312 -15.375 11.59375 -15.472656 12.09375 -15.671875 C 12.601562 -15.878906 12.992188 -16.140625 13.265625 -16.453125 C 13.722656 -16.972656 13.953125 -17.6875 13.953125 -18.59375 C 13.953125 -20.507812 12.828125 -21.46875 10.578125 -21.46875 C 9.617188 -21.46875 8.820312 -21.425781 8.1875 -21.34375 Z M 10.96875 -11.484375 C 9.914062 -11.484375 8.988281 -11.414062 8.1875 -11.28125 L 8.1875 -3.921875 C 9.0625 -3.691406 9.976562 -3.578125 10.9375 -3.578125 C 11.90625 -3.578125 12.753906 -3.691406 13.484375 -3.921875 C 14.210938 -4.160156 14.828125 -4.476562 15.328125 -4.875 C 16.347656 -5.695312 16.859375 -6.742188 16.859375 -8.015625 C 16.859375 -10.328125 14.894531 -11.484375 10.96875 -11.484375 Z M 10.96875 -11.484375 "/></g></g></g><g fill="#d9d9d9" fill-opacity="1"><g transform="translate(120.732735, 309.12244)"><g><path d="M 15.765625 -4.5 C 16.535156 -4.5 17.070312 -4.570312 17.375 -4.71875 L 17.453125 -4.703125 L 17.265625 0 L 3.21875 0 L 3.21875 -25.0625 C 3.5625 -25.039062 3.9375 -25.019531 4.34375 -25 L 5.65625 -24.96875 C 6.53125 -24.945312 7.484375 -24.9375 8.515625 -24.9375 C 11.367188 -24.9375 14.195312 -24.984375 17 -25.078125 C 16.863281 -23.984375 16.796875 -22.515625 16.796875 -20.671875 C 16.796875 -20.472656 16.804688 -20.320312 16.828125 -20.21875 L 16.796875 -20.171875 C 16.148438 -20.359375 15.222656 -20.453125 14.015625 -20.453125 L 8.109375 -20.453125 L 8.109375 -15.671875 L 12.5625 -15.671875 C 13.9375 -15.671875 14.757812 -15.707031 15.03125 -15.78125 L 15.09375 -11.15625 C 14.488281 -11.21875 13.710938 -11.25 12.765625 -11.25 L 8.109375 -11.25 L 8.109375 -4.5 Z M 15.765625 -4.5 "/></g></g></g><g fill="#d9d9d9" fill-opacity="1"><g transform="translate(145.341112, 309.12244)"><g><path d="M 12.21875 0.109375 C 11.625 0.0351562 10.082031 0 7.59375 0 L 6.984375 0 L 6.984375 -20.734375 L 3.28125 -20.734375 C 2.175781 -20.734375 1.523438 -20.675781 1.328125 -20.5625 C 1.128906 -20.445312 0.972656 -20.347656 0.859375 -20.265625 L 0.8125 -20.28125 L 0.8125 -25.078125 L 0.859375 -25.140625 C 1.273438 -25.003906 2.390625 -24.9375 4.203125 -24.9375 L 15.953125 -24.9375 C 17.054688 -24.9375 17.707031 -24.988281 17.90625 -25.09375 C 18.101562 -25.207031 18.257812 -25.3125 18.375 -25.40625 L 18.421875 -25.375 L 18.421875 -20.578125 L 18.375 -20.53125 C 17.957031 -20.664062 16.84375 -20.734375 15.03125 -20.734375 L 12.21875 -20.734375 Z M 12.21875 0.109375 "/></g></g></g><g fill="#d9d9d9" fill-opacity="1"><g transform="translate(169.94949, 309.12244)"><g><path d="M 12.140625 0.078125 C 11.765625 0.0234375 11.128906 0 10.234375 0 L 8.0625 0 C 7.632812 0 7.285156 0.0078125 7.015625 0.03125 L 6.984375 0 C 7.035156 -0.0820312 7.0625 -0.179688 7.0625 -0.296875 C 7.0625 -0.410156 7.050781 -0.53125 7.03125 -0.65625 C 7.019531 -0.78125 6.972656 -1.003906 6.890625 -1.328125 C 6.804688 -1.648438 6.679688 -2.117188 6.515625 -2.734375 L 0.15625 -25 C 0.945312 -24.957031 1.910156 -24.9375 3.046875 -24.9375 C 4.191406 -24.9375 4.929688 -24.984375 5.265625 -25.078125 L 9.6875 -8.109375 L 14 -25 C 14.1875 -24.988281 14.359375 -24.976562 14.515625 -24.96875 L 14.921875 -24.96875 C 15.335938 -24.945312 15.859375 -24.9375 16.484375 -24.9375 C 17.109375 -24.9375 17.75 -24.984375 18.40625 -25.078125 L 22.796875 -8.109375 L 26.5625 -25 C 27.3125 -24.957031 28.289062 -24.9375 29.5 -24.9375 C 30.71875 -24.9375 31.457031 -24.984375 31.71875 -25.078125 L 26.3125 -5.3125 C 25.625 -3.03125 25.257812 -1.675781 25.21875 -1.25 C 25.1875 -0.832031 25.171875 -0.539062 25.171875 -0.375 C 25.171875 -0.207031 25.195312 -0.078125 25.25 0.015625 L 25.21875 0.078125 C 24.8125 0.0234375 24.175781 0 23.3125 0 C 22.5625 0 21.878906 0 21.265625 0 C 20.660156 0 20.21875 0.0078125 19.9375 0.03125 L 19.921875 0 C 19.972656 -0.0820312 20 -0.179688 20 -0.296875 C 20 -0.410156 19.992188 -0.523438 19.984375 -0.640625 C 19.972656 -0.753906 19.9375 -0.96875 19.875 -1.28125 C 19.820312 -1.601562 19.734375 -2.078125 19.609375 -2.703125 L 19.109375 -5.25 L 16.03125 -16.921875 L 13.109375 -5.3125 C 12.503906 -2.914062 12.191406 -1.539062 12.171875 -1.1875 C 12.117188 -0.5 12.125 -0.0976562 12.1875 0.015625 Z M 12.140625 0.078125 "/></g></g></g><g fill="#d9d9d9" fill-opacity="1"><g transform="translate(207.379736, 309.12244)"><g><path d="M 15.765625 -4.5 C 16.535156 -4.5 17.070312 -4.570312 17.375 -4.71875 L 17.453125 -4.703125 L 17.265625 0 L 3.21875 0 L 3.21875 -25.0625 C 3.5625 -25.039062 3.9375 -25.019531 4.34375 -25 L 5.65625 -24.96875 C 6.53125 -24.945312 7.484375 -24.9375 8.515625 -24.9375 C 11.367188 -24.9375 14.195312 -24.984375 17 -25.078125 C 16.863281 -23.984375 16.796875 -22.515625 16.796875 -20.671875 C 16.796875 -20.472656 16.804688 -20.320312 16.828125 -20.21875 L 16.796875 -20.171875 C 16.148438 -20.359375 15.222656 -20.453125 14.015625 -20.453125 L 8.109375 -20.453125 L 8.109375 -15.671875 L 12.5625 -15.671875 C 13.9375 -15.671875 14.757812 -15.707031 15.03125 -15.78125 L 15.09375 -11.15625 C 14.488281 -11.21875 13.710938 -11.25 12.765625 -11.25 L 8.109375 -11.25 L 8.109375 -4.5 Z M 15.765625 -4.5 "/></g></g></g><g fill="#d9d9d9" fill-opacity="1"><g transform="translate(231.988113, 309.12244)"><g><path d="M 15.765625 -4.5 C 16.535156 -4.5 17.070312 -4.570312 17.375 -4.71875 L 17.453125 -4.703125 L 17.265625 0 L 3.21875 0 L 3.21875 -25.0625 C 3.5625 -25.039062 3.9375 -25.019531 4.34375 -25 L 5.65625 -24.96875 C 6.53125 -24.945312 7.484375 -24.9375 8.515625 -24.9375 C 11.367188 -24.9375 14.195312 -24.984375 17 -25.078125 C 16.863281 -23.984375 16.796875 -22.515625 16.796875 -20.671875 C 16.796875 -20.472656 16.804688 -20.320312 16.828125 -20.21875 L 16.796875 -20.171875 C 16.148438 -20.359375 15.222656 -20.453125 14.015625 -20.453125 L 8.109375 -20.453125 L 8.109375 -15.671875 L 12.5625 -15.671875 C 13.9375 -15.671875 14.757812 -15.707031 15.03125 -15.78125 L 15.09375 -11.15625 C 14.488281 -11.21875 13.710938 -11.25 12.765625 -11.25 L 8.109375 -11.25 L 8.109375 -4.5 Z M 15.765625 -4.5 "/></g></g></g><g fill="#d9d9d9" fill-opacity="1"><g transform="translate(256.596491, 309.12244)"><g><path d="M 3.390625 0 C 3.460938 -0.425781 3.5 -0.890625 3.5 -1.390625 L 3.5 -24.9375 L 7.25 -24.9375 L 17.1875 -9.296875 L 17.1875 -23.65625 C 17.1875 -24.34375 17.125 -24.769531 17 -24.9375 L 22.0625 -24.9375 C 22 -24.4375 21.96875 -23.882812 21.96875 -23.28125 L 21.96875 0 L 18.078125 0 L 8.28125 -15.015625 L 8.28125 0 Z M 3.390625 0 "/></g></g></g><g fill="#d9d9d9" fill-opacity="1"><g transform="translate(95.044522, 342.346588)"><g><path d="M 18.203125 -23.453125 L 17.859375 -17.96875 L 17.71875 -17.9375 C 16.800781 -19.3125 15.234375 -20.207031 13.015625 -20.625 C 12.316406 -20.757812 11.644531 -20.828125 11 -20.828125 C 10.363281 -20.828125 9.816406 -20.769531 9.359375 -20.65625 C 8.910156 -20.539062 8.523438 -20.378906 8.203125 -20.171875 C 7.515625 -19.722656 7.171875 -19.140625 7.171875 -18.421875 C 7.171875 -17.472656 7.46875 -16.757812 8.0625 -16.28125 C 8.8125 -15.707031 10.050781 -15.304688 11.78125 -15.078125 C 13.507812 -14.847656 14.894531 -14.535156 15.9375 -14.140625 C 16.988281 -13.742188 17.851562 -13.238281 18.53125 -12.625 C 19.800781 -11.476562 20.4375 -9.859375 20.4375 -7.765625 C 20.4375 -5.023438 19.398438 -2.914062 17.328125 -1.4375 C 15.566406 -0.164062 13.335938 0.46875 10.640625 0.46875 C 8.472656 0.46875 6.332031 0.0546875 4.21875 -0.765625 C 3.519531 -1.035156 2.910156 -1.351562 2.390625 -1.71875 L 2.59375 -7.953125 L 2.671875 -8.015625 C 4.210938 -5.347656 6.742188 -4.015625 10.265625 -4.015625 C 12.773438 -4.015625 14.429688 -4.617188 15.234375 -5.828125 C 15.515625 -6.234375 15.65625 -6.6875 15.65625 -7.1875 C 15.65625 -7.695312 15.570312 -8.117188 15.40625 -8.453125 C 15.25 -8.785156 14.984375 -9.066406 14.609375 -9.296875 C 13.878906 -9.773438 12.660156 -10.09375 10.953125 -10.25 C 9.253906 -10.414062 7.863281 -10.722656 6.78125 -11.171875 C 5.695312 -11.617188 4.832031 -12.171875 4.1875 -12.828125 C 3.007812 -14.023438 2.421875 -15.695312 2.421875 -17.84375 C 2.421875 -20.050781 3.203125 -21.84375 4.765625 -23.21875 C 6.347656 -24.613281 8.476562 -25.3125 11.15625 -25.3125 C 13.84375 -25.3125 16.191406 -24.691406 18.203125 -23.453125 Z M 18.203125 -23.453125 "/></g></g></g><g fill="#d9d9d9" fill-opacity="1"><g transform="translate(122.108973, 342.346588)"><g><path d="M 8.421875 0 C 8.585938 -0.488281 8.671875 -1.625 8.671875 -3.40625 L 8.671875 -8.59375 C 6.515625 -13.332031 5.132812 -16.289062 4.53125 -17.46875 C 3.9375 -18.644531 3.4375 -19.578125 3.03125 -20.265625 C 1.726562 -22.453125 0.941406 -23.707031 0.671875 -24.03125 C 0.410156 -24.351562 0.144531 -24.625 -0.125 -24.84375 L 6.3125 -24.84375 C 6.445312 -24.59375 6.632812 -24.222656 6.875 -23.734375 L 11.390625 -14.1875 C 11.597656 -14.71875 11.847656 -15.304688 12.140625 -15.953125 C 14.859375 -21.785156 16.234375 -24.75 16.265625 -24.84375 L 22.4375 -24.84375 C 21.800781 -24.332031 21.019531 -23.257812 20.09375 -21.625 C 19.8125 -21.144531 19.523438 -20.59375 19.234375 -19.96875 L 15.015625 -11.171875 C 14.546875 -10.109375 14.140625 -9.15625 13.796875 -8.3125 L 13.796875 -2.953125 C 13.796875 -1.703125 13.875 -0.71875 14.03125 0 Z M 8.421875 0 "/></g></g></g><g fill="#d9d9d9" fill-opacity="1"><g transform="translate(149.173425, 342.346588)"><g><path d="M 18.203125 -23.453125 L 17.859375 -17.96875 L 17.71875 -17.9375 C 16.800781 -19.3125 15.234375 -20.207031 13.015625 -20.625 C 12.316406 -20.757812 11.644531 -20.828125 11 -20.828125 C 10.363281 -20.828125 9.816406 -20.769531 9.359375 -20.65625 C 8.910156 -20.539062 8.523438 -20.378906 8.203125 -20.171875 C 7.515625 -19.722656 7.171875 -19.140625 7.171875 -18.421875 C 7.171875 -17.472656 7.46875 -16.757812 8.0625 -16.28125 C 8.8125 -15.707031 10.050781 -15.304688 11.78125 -15.078125 C 13.507812 -14.847656 14.894531 -14.535156 15.9375 -14.140625 C 16.988281 -13.742188 17.851562 -13.238281 18.53125 -12.625 C 19.800781 -11.476562 20.4375 -9.859375 20.4375 -7.765625 C 20.4375 -5.023438 19.398438 -2.914062 17.328125 -1.4375 C 15.566406 -0.164062 13.335938 0.46875 10.640625 0.46875 C 8.472656 0.46875 6.332031 0.0546875 4.21875 -0.765625 C 3.519531 -1.035156 2.910156 -1.351562 2.390625 -1.71875 L 2.59375 -7.953125 L 2.671875 -8.015625 C 4.210938 -5.347656 6.742188 -4.015625 10.265625 -4.015625 C 12.773438 -4.015625 14.429688 -4.617188 15.234375 -5.828125 C 15.515625 -6.234375 15.65625 -6.6875 15.65625 -7.1875 C 15.65625 -7.695312 15.570312 -8.117188 15.40625 -8.453125 C 15.25 -8.785156 14.984375 -9.066406 14.609375 -9.296875 C 13.878906 -9.773438 12.660156 -10.09375 10.953125 -10.25 C 9.253906 -10.414062 7.863281 -10.722656 6.78125 -11.171875 C 5.695312 -11.617188 4.832031 -12.171875 4.1875 -12.828125 C 3.007812 -14.023438 2.421875 -15.695312 2.421875 -17.84375 C 2.421875 -20.050781 3.203125 -21.84375 4.765625 -23.21875 C 6.347656 -24.613281 8.476562 -25.3125 11.15625 -25.3125 C 13.84375 -25.3125 16.191406 -24.691406 18.203125 -23.453125 Z M 18.203125 -23.453125 "/></g></g></g><g fill="#d9d9d9" fill-opacity="1"><g transform="translate(176.237877, 342.346588)"><g><path d="M 12.171875 0.109375 C 11.578125 0.0351562 10.039062 0 7.5625 0 L 6.96875 0 L 6.96875 -20.65625 L 3.265625 -20.65625 C 2.171875 -20.65625 1.523438 -20.597656 1.328125 -20.484375 C 1.128906 -20.378906 0.972656 -20.28125 0.859375 -20.1875 L 0.796875 -20.203125 L 0.796875 -24.984375 L 0.859375 -25.046875 C 1.265625 -24.910156 2.375 -24.84375 4.1875 -24.84375 L 15.890625 -24.84375 C 16.984375 -24.84375 17.628906 -24.894531 17.828125 -25 C 18.035156 -25.113281 18.191406 -25.21875 18.296875 -25.3125 L 18.359375 -25.28125 L 18.359375 -20.5 L 18.296875 -20.453125 C 17.890625 -20.585938 16.785156 -20.65625 14.984375 -20.65625 L 12.171875 -20.65625 Z M 12.171875 0.109375 "/></g></g></g><g fill="#d9d9d9" fill-opacity="1"><g transform="translate(200.18331, 342.346588)"><g><path d="M 15.703125 -4.484375 C 16.472656 -4.484375 17.007812 -4.554688 17.3125 -4.703125 L 17.390625 -4.6875 L 17.203125 0 L 3.21875 0 L 3.21875 -24.96875 C 3.550781 -24.945312 3.921875 -24.929688 4.328125 -24.921875 L 5.640625 -24.875 C 6.515625 -24.851562 7.460938 -24.84375 8.484375 -24.84375 C 11.328125 -24.84375 14.144531 -24.890625 16.9375 -24.984375 C 16.800781 -23.890625 16.734375 -22.425781 16.734375 -20.59375 C 16.734375 -20.394531 16.742188 -20.25 16.765625 -20.15625 L 16.734375 -20.09375 C 16.085938 -20.28125 15.164062 -20.375 13.96875 -20.375 L 8.09375 -20.375 L 8.09375 -15.609375 L 12.515625 -15.609375 C 13.878906 -15.609375 14.703125 -15.644531 14.984375 -15.71875 L 15.03125 -11.109375 C 14.4375 -11.171875 13.664062 -11.203125 12.71875 -11.203125 L 8.09375 -11.203125 L 8.09375 -4.484375 Z M 15.703125 -4.484375 "/></g></g></g><g fill="#d9d9d9" fill-opacity="1"><g transform="translate(224.128743, 342.346588)"><g><path d="M 8.25 0.109375 C 7.65625 0.0351562 6.503906 0 4.796875 0 L 3.3125 0 L 3.3125 -24.921875 C 4.101562 -24.867188 4.976562 -24.84375 5.9375 -24.84375 C 6.894531 -24.84375 7.570312 -24.890625 7.96875 -24.984375 L 14.25 -14.328125 L 20.28125 -24.984375 C 20.675781 -24.890625 21.4375 -24.84375 22.5625 -24.84375 C 23.6875 -24.84375 24.644531 -24.867188 25.4375 -24.921875 L 25.4375 0 L 23.9375 0 C 22.238281 0 21.085938 0.0351562 20.484375 0.109375 L 20.484375 -16.625 L 14.375 -5.703125 L 8.25 -15.75 Z M 8.25 0.109375 "/></g></g></g><g fill="#d9d9d9" fill-opacity="1"><g transform="translate(257.655351, 342.346588)"><g><path d="M 18.203125 -23.453125 L 17.859375 -17.96875 L 17.71875 -17.9375 C 16.800781 -19.3125 15.234375 -20.207031 13.015625 -20.625 C 12.316406 -20.757812 11.644531 -20.828125 11 -20.828125 C 10.363281 -20.828125 9.816406 -20.769531 9.359375 -20.65625 C 8.910156 -20.539062 8.523438 -20.378906 8.203125 -20.171875 C 7.515625 -19.722656 7.171875 -19.140625 7.171875 -18.421875 C 7.171875 -17.472656 7.46875 -16.757812 8.0625 -16.28125 C 8.8125 -15.707031 10.050781 -15.304688 11.78125 -15.078125 C 13.507812 -14.847656 14.894531 -14.535156 15.9375 -14.140625 C 16.988281 -13.742188 17.851562 -13.238281 18.53125 -12.625 C 19.800781 -11.476562 20.4375 -9.859375 20.4375 -7.765625 C 20.4375 -5.023438 19.398438 -2.914062 17.328125 -1.4375 C 15.566406 -0.164062 13.335938 0.46875 10.640625 0.46875 C 8.472656 0.46875 6.332031 0.0546875 4.21875 -0.765625 C 3.519531 -1.035156 2.910156 -1.351562 2.390625 -1.71875 L 2.59375 -7.953125 L 2.671875 -8.015625 C 4.210938 -5.347656 6.742188 -4.015625 10.265625 -4.015625 C 12.773438 -4.015625 14.429688 -4.617188 15.234375 -5.828125 C 15.515625 -6.234375 15.65625 -6.6875 15.65625 -7.1875 C 15.65625 -7.695312 15.570312 -8.117188 15.40625 -8.453125 C 15.25 -8.785156 14.984375 -9.066406 14.609375 -9.296875 C 13.878906 -9.773438 12.660156 -10.09375 10.953125 -10.25 C 9.253906 -10.414062 7.863281 -10.722656 6.78125 -11.171875 C 5.695312 -11.617188 4.832031 -12.171875 4.1875 -12.828125 C 3.007812 -14.023438 2.421875 -15.695312 2.421875 -17.84375 C 2.421875 -20.050781 3.203125 -21.84375 4.765625 -23.21875 C 6.347656 -24.613281 8.476562 -25.3125 11.15625 -25.3125 C 13.84375 -25.3125 16.191406 -24.691406 18.203125 -23.453125 Z M 18.203125 -23.453125 "/></g></g></g><g clip-path="url(#b6e0f1a360)"><path fill="#ff914d" d="M 163.324219 137.074219 L 175.40625 145.324219 C 176.027344 144.191406 177.230469 143.425781 178.613281 143.425781 L 197.035156 143.425781 C 199.042969 143.425781 200.6875 145.066406 200.6875 147.074219 L 200.6875 165.503906 C 200.6875 167.511719 199.042969 169.148438 197.035156 169.148438 L 188.105469 169.148438 L 180.351562 184.445312 L 181.902344 184.445312 C 184.484375 184.445312 186.589844 186.550781 186.589844 189.136719 L 186.589844 199.378906 L 212.617188 199.804688 L 212.617188 199.167969 C 212.617188 197.640625 213.867188 196.386719 215.398438 196.386719 L 229.4375 196.386719 C 230.96875 196.386719 232.214844 197.636719 232.214844 199.167969 L 232.214844 213.210938 C 232.214844 214.738281 230.96875 215.988281 229.4375 215.988281 L 215.398438 215.988281 C 213.867188 215.988281 212.617188 214.742188 212.617188 213.210938 L 212.617188 206.726562 L 186.589844 206.300781 L 186.589844 212.835938 C 186.589844 215.417969 184.484375 217.527344 181.902344 217.527344 L 158.203125 217.527344 C 155.621094 217.527344 153.515625 215.417969 153.515625 212.835938 L 153.515625 189.140625 C 153.515625 186.558594 155.621094 184.449219 158.203125 184.449219 L 172.582031 184.449219 L 180.339844 169.152344 L 178.613281 169.152344 C 176.601562 169.152344 174.960938 167.515625 174.960938 165.507812 L 174.960938 153.414062 L 162.621094 144.988281 C 161.632812 146.796875 159.710938 148.027344 157.511719 148.027344 L 128.121094 148.027344 C 124.917969 148.027344 122.304688 145.410156 122.304688 142.207031 L 122.304688 112.816406 C 122.304688 109.609375 124.921875 107 128.121094 107 L 157.511719 107 C 160.714844 107 163.328125 109.617188 163.328125 112.816406 L 163.328125 137.074219 Z M 98.871094 100.863281 L 82.796875 121.128906 L 82.796875 141.09375 C 82.796875 142.070312 82.457031 142.964844 81.890625 143.675781 L 93.464844 157.507812 L 113.71875 157.507812 C 116.921875 157.507812 119.535156 160.128906 119.535156 163.332031 L 119.535156 192.722656 C 119.535156 195.925781 116.917969 198.542969 113.71875 198.542969 L 84.328125 198.542969 C 81.121094 198.542969 78.507812 195.925781 78.507812 192.722656 L 78.507812 163.332031 C 78.507812 160.128906 81.128906 157.507812 84.328125 157.507812 L 84.421875 157.507812 L 74.171875 145.265625 L 57.5625 145.265625 C 55.273438 145.265625 53.398438 143.390625 53.398438 141.101562 L 53.398438 120.035156 C 53.398438 117.746094 55.273438 115.871094 57.5625 115.871094 L 78.117188 115.871094 L 90.171875 100.671875 C 87.691406 100.007812 85.851562 97.734375 85.851562 95.050781 L 85.851562 65.65625 C 85.851562 62.449219 88.46875 59.832031 91.667969 59.832031 L 121.0625 59.832031 C 124.265625 59.832031 126.878906 62.449219 126.878906 65.65625 L 126.878906 95.046875 C 126.878906 98.25 124.261719 100.863281 121.0625 100.863281 Z M 243.296875 245.699219 L 261.324219 225.773438 L 261.320312 225.535156 L 261.320312 191.757812 C 261.320312 189.953125 262.042969 188.316406 263.207031 187.113281 L 253.71875 176.105469 C 253.398438 176.164062 253.066406 176.1875 252.734375 176.1875 L 223.335938 176.1875 C 220.132812 176.1875 217.519531 173.570312 217.519531 170.367188 L 217.519531 140.972656 C 217.519531 137.769531 220.136719 135.15625 223.335938 135.15625 L 252.734375 135.15625 C 255.9375 135.15625 258.550781 137.773438 258.550781 140.972656 L 258.550781 170.367188 C 258.550781 170.601562 258.535156 170.835938 258.507812 171.066406 L 270.582031 185.078125 L 301.769531 185.078125 C 305.445312 185.078125 308.449219 188.082031 308.449219 191.757812 L 308.449219 225.53125 C 308.449219 229.203125 305.441406 232.210938 301.769531 232.210938 L 267.996094 232.210938 C 267.050781 232.210938 266.140625 232.011719 265.320312 231.652344 L 248.746094 249.976562 L 248.746094 269.875 C 248.746094 272.074219 246.945312 273.867188 244.753906 273.867188 L 224.570312 273.867188 C 222.371094 273.867188 220.578125 272.074219 220.578125 269.875 L 220.578125 249.691406 C 220.578125 247.492188 222.375 245.699219 224.570312 245.699219 Z M 299.027344 131.179688 L 288.0625 110.035156 L 273.519531 110.035156 C 271.179688 110.035156 269.269531 108.125 269.269531 105.785156 L 269.269531 84.296875 C 269.269531 81.957031 271.179688 80.046875 273.519531 80.046875 L 295.007812 80.046875 C 297.347656 80.046875 299.257812 81.957031 299.257812 84.296875 L 299.257812 105.785156 C 299.257812 107.847656 297.777344 109.574219 295.820312 109.960938 L 306.828125 131.179688 L 317.363281 131.179688 C 319.703125 131.179688 321.613281 133.089844 321.613281 135.429688 L 321.613281 156.917969 C 321.613281 159.257812 319.703125 161.167969 317.363281 161.167969 L 295.875 161.167969 C 293.535156 161.167969 291.625 159.257812 291.625 156.917969 L 291.625 135.429688 C 291.625 133.089844 293.535156 131.179688 295.875 131.179688 Z M 162.710938 36.5625 L 192.105469 36.5625 C 195.308594 36.5625 197.921875 39.179688 197.921875 42.378906 L 197.921875 71.773438 C 197.921875 74.980469 195.304688 77.589844 192.105469 77.589844 L 186.621094 77.589844 L 192.730469 92.605469 L 208.054688 92.605469 C 208.332031 92.605469 208.59375 92.632812 208.851562 92.679688 L 218.105469 84.867188 C 216.988281 83.808594 216.292969 82.3125 216.292969 80.652344 L 216.292969 51.261719 C 216.292969 48.058594 218.910156 45.441406 222.109375 45.441406 L 251.503906 45.441406 C 254.707031 45.441406 257.320312 48.058594 257.320312 51.261719 L 257.320312 80.652344 C 257.320312 83.859375 254.703125 86.472656 251.503906 86.472656 L 226.945312 86.472656 L 212.300781 98.835938 L 212.300781 118.34375 C 212.300781 120.683594 210.386719 122.59375 208.046875 122.59375 L 186.5625 122.59375 C 184.222656 122.59375 182.3125 120.683594 182.3125 118.34375 L 182.3125 96.855469 C 182.3125 94.945312 183.578125 93.324219 185.316406 92.789062 L 179.128906 77.589844 L 162.707031 77.589844 C 159.503906 77.589844 156.886719 74.972656 156.886719 71.773438 L 156.886719 42.378906 C 156.894531 39.179688 159.515625 36.5625 162.710938 36.5625 Z M 162.710938 36.5625 " fill-opacity="1" fill-rule="evenodd"/></g></svg>