<svg xmlns="http://www.w3.org/2000/svg" version="1.1" xmlns:xlink="http://www.w3.org/1999/xlink" width="500" height="500"><svg xmlns="http://www.w3.org/2000/svg" xmlns:xlink="http://www.w3.org/1999/xlink" width="500" zoomAndPan="magnify" viewBox="0 0 375 374.999991" height="500" preserveAspectRatio="xMidYMid meet" version="1.0"><defs><g></g><clipPath id="SvgjsClipPath1001"><path d="M 98.761719 64.703125 L 276.511719 64.703125 L 276.511719 222 L 98.761719 222 Z M 98.761719 64.703125 " clip-rule="nonzero"></path></clipPath></defs><g fill="#d9d9d9" fill-opacity="1"><g transform="translate(92.91889, 260.04054)"><g><path d="M 18.984375 -1.828125 C 18.066406 -1.097656 16.875 -0.53125 15.40625 -0.125 C 13.945312 0.269531 12.148438 0.46875 10.015625 0.46875 C 7.890625 0.46875 5.625 0.273438 3.21875 -0.109375 L 3.21875 -24.8125 C 5.644531 -25.207031 7.75 -25.40625 9.53125 -25.40625 C 11.3125 -25.40625 12.773438 -25.234375 13.921875 -24.890625 C 15.066406 -24.554688 16 -24.101562 16.71875 -23.53125 C 18.144531 -22.414062 18.859375 -20.972656 18.859375 -19.203125 C 18.859375 -17.429688 18.210938 -15.96875 16.921875 -14.8125 C 18.453125 -14.332031 19.632812 -13.429688 20.46875 -12.109375 C 21.226562 -10.921875 21.609375 -9.601562 21.609375 -8.15625 C 21.609375 -6.71875 21.398438 -5.484375 20.984375 -4.453125 C 20.566406 -3.429688 19.898438 -2.554688 18.984375 -1.828125 Z M 8.1875 -15.5 C 8.71875 -15.414062 9.375 -15.375 10.15625 -15.375 C 10.945312 -15.375 11.59375 -15.472656 12.09375 -15.671875 C 12.601562 -15.878906 12.992188 -16.140625 13.265625 -16.453125 C 13.722656 -16.972656 13.953125 -17.6875 13.953125 -18.59375 C 13.953125 -20.507812 12.828125 -21.46875 10.578125 -21.46875 C 9.617188 -21.46875 8.820312 -21.425781 8.1875 -21.34375 Z M 10.96875 -11.484375 C 9.914062 -11.484375 8.988281 -11.414062 8.1875 -11.28125 L 8.1875 -3.921875 C 9.0625 -3.691406 9.976562 -3.578125 10.9375 -3.578125 C 11.90625 -3.578125 12.753906 -3.691406 13.484375 -3.921875 C 14.210938 -4.160156 14.828125 -4.476562 15.328125 -4.875 C 16.347656 -5.695312 16.859375 -6.742188 16.859375 -8.015625 C 16.859375 -10.328125 14.894531 -11.484375 10.96875 -11.484375 Z M 10.96875 -11.484375 "></path></g></g></g><g fill="#d9d9d9" fill-opacity="1"><g transform="translate(120.732735, 260.04054)"><g><path d="M 15.765625 -4.5 C 16.535156 -4.5 17.070312 -4.570312 17.375 -4.71875 L 17.453125 -4.703125 L 17.265625 0 L 3.21875 0 L 3.21875 -25.0625 C 3.5625 -25.039062 3.9375 -25.019531 4.34375 -25 L 5.65625 -24.96875 C 6.53125 -24.945312 7.484375 -24.9375 8.515625 -24.9375 C 11.367188 -24.9375 14.195312 -24.984375 17 -25.078125 C 16.863281 -23.984375 16.796875 -22.515625 16.796875 -20.671875 C 16.796875 -20.472656 16.804688 -20.320312 16.828125 -20.21875 L 16.796875 -20.171875 C 16.148438 -20.359375 15.222656 -20.453125 14.015625 -20.453125 L 8.109375 -20.453125 L 8.109375 -15.671875 L 12.5625 -15.671875 C 13.9375 -15.671875 14.757812 -15.707031 15.03125 -15.78125 L 15.09375 -11.15625 C 14.488281 -11.21875 13.710938 -11.25 12.765625 -11.25 L 8.109375 -11.25 L 8.109375 -4.5 Z M 15.765625 -4.5 "></path></g></g></g><g fill="#d9d9d9" fill-opacity="1"><g transform="translate(145.341112, 260.04054)"><g><path d="M 12.21875 0.109375 C 11.625 0.0351562 10.082031 0 7.59375 0 L 6.984375 0 L 6.984375 -20.734375 L 3.28125 -20.734375 C 2.175781 -20.734375 1.523438 -20.675781 1.328125 -20.5625 C 1.128906 -20.445312 0.972656 -20.347656 0.859375 -20.265625 L 0.8125 -20.28125 L 0.8125 -25.078125 L 0.859375 -25.140625 C 1.273438 -25.003906 2.390625 -24.9375 4.203125 -24.9375 L 15.953125 -24.9375 C 17.054688 -24.9375 17.707031 -24.988281 17.90625 -25.09375 C 18.101562 -25.207031 18.257812 -25.3125 18.375 -25.40625 L 18.421875 -25.375 L 18.421875 -20.578125 L 18.375 -20.53125 C 17.957031 -20.664062 16.84375 -20.734375 15.03125 -20.734375 L 12.21875 -20.734375 Z M 12.21875 0.109375 "></path></g></g></g><g fill="#d9d9d9" fill-opacity="1"><g transform="translate(169.94949, 260.04054)"><g><path d="M 12.140625 0.078125 C 11.765625 0.0234375 11.128906 0 10.234375 0 L 8.0625 0 C 7.632812 0 7.285156 0.0078125 7.015625 0.03125 L 6.984375 0 C 7.035156 -0.0820312 7.0625 -0.179688 7.0625 -0.296875 C 7.0625 -0.410156 7.050781 -0.53125 7.03125 -0.65625 C 7.019531 -0.78125 6.972656 -1.003906 6.890625 -1.328125 C 6.804688 -1.648438 6.679688 -2.117188 6.515625 -2.734375 L 0.15625 -25 C 0.945312 -24.957031 1.910156 -24.9375 3.046875 -24.9375 C 4.191406 -24.9375 4.929688 -24.984375 5.265625 -25.078125 L 9.6875 -8.109375 L 14 -25 C 14.1875 -24.988281 14.359375 -24.976562 14.515625 -24.96875 L 14.921875 -24.96875 C 15.335938 -24.945312 15.859375 -24.9375 16.484375 -24.9375 C 17.109375 -24.9375 17.75 -24.984375 18.40625 -25.078125 L 22.796875 -8.109375 L 26.5625 -25 C 27.3125 -24.957031 28.289062 -24.9375 29.5 -24.9375 C 30.71875 -24.9375 31.457031 -24.984375 31.71875 -25.078125 L 26.3125 -5.3125 C 25.625 -3.03125 25.257812 -1.675781 25.21875 -1.25 C 25.1875 -0.832031 25.171875 -0.539062 25.171875 -0.375 C 25.171875 -0.207031 25.195312 -0.078125 25.25 0.015625 L 25.21875 0.078125 C 24.8125 0.0234375 24.175781 0 23.3125 0 C 22.5625 0 21.878906 0 21.265625 0 C 20.660156 0 20.21875 0.0078125 19.9375 0.03125 L 19.921875 0 C 19.972656 -0.0820312 20 -0.179688 20 -0.296875 C 20 -0.410156 19.992188 -0.523438 19.984375 -0.640625 C 19.972656 -0.753906 19.9375 -0.96875 19.875 -1.28125 C 19.820312 -1.601562 19.734375 -2.078125 19.609375 -2.703125 L 19.109375 -5.25 L 16.03125 -16.921875 L 13.109375 -5.3125 C 12.503906 -2.914062 12.191406 -1.539062 12.171875 -1.1875 C 12.117188 -0.5 12.125 -0.0976562 12.1875 0.015625 Z M 12.140625 0.078125 "></path></g></g></g><g fill="#d9d9d9" fill-opacity="1"><g transform="translate(207.379736, 260.04054)"><g><path d="M 15.765625 -4.5 C 16.535156 -4.5 17.070312 -4.570312 17.375 -4.71875 L 17.453125 -4.703125 L 17.265625 0 L 3.21875 0 L 3.21875 -25.0625 C 3.5625 -25.039062 3.9375 -25.019531 4.34375 -25 L 5.65625 -24.96875 C 6.53125 -24.945312 7.484375 -24.9375 8.515625 -24.9375 C 11.367188 -24.9375 14.195312 -24.984375 17 -25.078125 C 16.863281 -23.984375 16.796875 -22.515625 16.796875 -20.671875 C 16.796875 -20.472656 16.804688 -20.320312 16.828125 -20.21875 L 16.796875 -20.171875 C 16.148438 -20.359375 15.222656 -20.453125 14.015625 -20.453125 L 8.109375 -20.453125 L 8.109375 -15.671875 L 12.5625 -15.671875 C 13.9375 -15.671875 14.757812 -15.707031 15.03125 -15.78125 L 15.09375 -11.15625 C 14.488281 -11.21875 13.710938 -11.25 12.765625 -11.25 L 8.109375 -11.25 L 8.109375 -4.5 Z M 15.765625 -4.5 "></path></g></g></g><g fill="#d9d9d9" fill-opacity="1"><g transform="translate(231.988113, 260.04054)"><g><path d="M 15.765625 -4.5 C 16.535156 -4.5 17.070312 -4.570312 17.375 -4.71875 L 17.453125 -4.703125 L 17.265625 0 L 3.21875 0 L 3.21875 -25.0625 C 3.5625 -25.039062 3.9375 -25.019531 4.34375 -25 L 5.65625 -24.96875 C 6.53125 -24.945312 7.484375 -24.9375 8.515625 -24.9375 C 11.367188 -24.9375 14.195312 -24.984375 17 -25.078125 C 16.863281 -23.984375 16.796875 -22.515625 16.796875 -20.671875 C 16.796875 -20.472656 16.804688 -20.320312 16.828125 -20.21875 L 16.796875 -20.171875 C 16.148438 -20.359375 15.222656 -20.453125 14.015625 -20.453125 L 8.109375 -20.453125 L 8.109375 -15.671875 L 12.5625 -15.671875 C 13.9375 -15.671875 14.757812 -15.707031 15.03125 -15.78125 L 15.09375 -11.15625 C 14.488281 -11.21875 13.710938 -11.25 12.765625 -11.25 L 8.109375 -11.25 L 8.109375 -4.5 Z M 15.765625 -4.5 "></path></g></g></g><g fill="#d9d9d9" fill-opacity="1"><g transform="translate(256.596491, 260.04054)"><g><path d="M 3.390625 0 C 3.460938 -0.425781 3.5 -0.890625 3.5 -1.390625 L 3.5 -24.9375 L 7.25 -24.9375 L 17.1875 -9.296875 L 17.1875 -23.65625 C 17.1875 -24.34375 17.125 -24.769531 17 -24.9375 L 22.0625 -24.9375 C 22 -24.4375 21.96875 -23.882812 21.96875 -23.28125 L 21.96875 0 L 18.078125 0 L 8.28125 -15.015625 L 8.28125 0 Z M 3.390625 0 "></path></g></g></g><g fill="#d9d9d9" fill-opacity="1"><g transform="translate(95.044522, 297.622041)"><g><path d="M 18.203125 -23.453125 L 17.859375 -17.96875 L 17.71875 -17.9375 C 16.800781 -19.3125 15.234375 -20.207031 13.015625 -20.625 C 12.316406 -20.757812 11.644531 -20.828125 11 -20.828125 C 10.363281 -20.828125 9.816406 -20.769531 9.359375 -20.65625 C 8.910156 -20.539062 8.523438 -20.378906 8.203125 -20.171875 C 7.515625 -19.722656 7.171875 -19.140625 7.171875 -18.421875 C 7.171875 -17.472656 7.46875 -16.757812 8.0625 -16.28125 C 8.8125 -15.707031 10.050781 -15.304688 11.78125 -15.078125 C 13.507812 -14.847656 14.894531 -14.535156 15.9375 -14.140625 C 16.988281 -13.742188 17.851562 -13.238281 18.53125 -12.625 C 19.800781 -11.476562 20.4375 -9.859375 20.4375 -7.765625 C 20.4375 -5.023438 19.398438 -2.914062 17.328125 -1.4375 C 15.566406 -0.164062 13.335938 0.46875 10.640625 0.46875 C 8.472656 0.46875 6.332031 0.0546875 4.21875 -0.765625 C 3.519531 -1.035156 2.910156 -1.351562 2.390625 -1.71875 L 2.59375 -7.953125 L 2.671875 -8.015625 C 4.210938 -5.347656 6.742188 -4.015625 10.265625 -4.015625 C 12.773438 -4.015625 14.429688 -4.617188 15.234375 -5.828125 C 15.515625 -6.234375 15.65625 -6.6875 15.65625 -7.1875 C 15.65625 -7.695312 15.570312 -8.117188 15.40625 -8.453125 C 15.25 -8.785156 14.984375 -9.066406 14.609375 -9.296875 C 13.878906 -9.773438 12.660156 -10.09375 10.953125 -10.25 C 9.253906 -10.414062 7.863281 -10.722656 6.78125 -11.171875 C 5.695312 -11.617188 4.832031 -12.171875 4.1875 -12.828125 C 3.007812 -14.023438 2.421875 -15.695312 2.421875 -17.84375 C 2.421875 -20.050781 3.203125 -21.84375 4.765625 -23.21875 C 6.347656 -24.613281 8.476562 -25.3125 11.15625 -25.3125 C 13.84375 -25.3125 16.191406 -24.691406 18.203125 -23.453125 Z M 18.203125 -23.453125 "></path></g></g></g><g fill="#d9d9d9" fill-opacity="1"><g transform="translate(122.108973, 297.622041)"><g><path d="M 8.421875 0 C 8.585938 -0.488281 8.671875 -1.625 8.671875 -3.40625 L 8.671875 -8.59375 C 6.515625 -13.332031 5.132812 -16.289062 4.53125 -17.46875 C 3.9375 -18.644531 3.4375 -19.578125 3.03125 -20.265625 C 1.726562 -22.453125 0.941406 -23.707031 0.671875 -24.03125 C 0.410156 -24.351562 0.144531 -24.625 -0.125 -24.84375 L 6.3125 -24.84375 C 6.445312 -24.59375 6.632812 -24.222656 6.875 -23.734375 L 11.390625 -14.1875 C 11.597656 -14.71875 11.847656 -15.304688 12.140625 -15.953125 C 14.859375 -21.785156 16.234375 -24.75 16.265625 -24.84375 L 22.4375 -24.84375 C 21.800781 -24.332031 21.019531 -23.257812 20.09375 -21.625 C 19.8125 -21.144531 19.523438 -20.59375 19.234375 -19.96875 L 15.015625 -11.171875 C 14.546875 -10.109375 14.140625 -9.15625 13.796875 -8.3125 L 13.796875 -2.953125 C 13.796875 -1.703125 13.875 -0.71875 14.03125 0 Z M 8.421875 0 "></path></g></g></g><g fill="#d9d9d9" fill-opacity="1"><g transform="translate(149.173425, 297.622041)"><g><path d="M 18.203125 -23.453125 L 17.859375 -17.96875 L 17.71875 -17.9375 C 16.800781 -19.3125 15.234375 -20.207031 13.015625 -20.625 C 12.316406 -20.757812 11.644531 -20.828125 11 -20.828125 C 10.363281 -20.828125 9.816406 -20.769531 9.359375 -20.65625 C 8.910156 -20.539062 8.523438 -20.378906 8.203125 -20.171875 C 7.515625 -19.722656 7.171875 -19.140625 7.171875 -18.421875 C 7.171875 -17.472656 7.46875 -16.757812 8.0625 -16.28125 C 8.8125 -15.707031 10.050781 -15.304688 11.78125 -15.078125 C 13.507812 -14.847656 14.894531 -14.535156 15.9375 -14.140625 C 16.988281 -13.742188 17.851562 -13.238281 18.53125 -12.625 C 19.800781 -11.476562 20.4375 -9.859375 20.4375 -7.765625 C 20.4375 -5.023438 19.398438 -2.914062 17.328125 -1.4375 C 15.566406 -0.164062 13.335938 0.46875 10.640625 0.46875 C 8.472656 0.46875 6.332031 0.0546875 4.21875 -0.765625 C 3.519531 -1.035156 2.910156 -1.351562 2.390625 -1.71875 L 2.59375 -7.953125 L 2.671875 -8.015625 C 4.210938 -5.347656 6.742188 -4.015625 10.265625 -4.015625 C 12.773438 -4.015625 14.429688 -4.617188 15.234375 -5.828125 C 15.515625 -6.234375 15.65625 -6.6875 15.65625 -7.1875 C 15.65625 -7.695312 15.570312 -8.117188 15.40625 -8.453125 C 15.25 -8.785156 14.984375 -9.066406 14.609375 -9.296875 C 13.878906 -9.773438 12.660156 -10.09375 10.953125 -10.25 C 9.253906 -10.414062 7.863281 -10.722656 6.78125 -11.171875 C 5.695312 -11.617188 4.832031 -12.171875 4.1875 -12.828125 C 3.007812 -14.023438 2.421875 -15.695312 2.421875 -17.84375 C 2.421875 -20.050781 3.203125 -21.84375 4.765625 -23.21875 C 6.347656 -24.613281 8.476562 -25.3125 11.15625 -25.3125 C 13.84375 -25.3125 16.191406 -24.691406 18.203125 -23.453125 Z M 18.203125 -23.453125 "></path></g></g></g><g fill="#d9d9d9" fill-opacity="1"><g transform="translate(176.237877, 297.622041)"><g><path d="M 12.171875 0.109375 C 11.578125 0.0351562 10.039062 0 7.5625 0 L 6.96875 0 L 6.96875 -20.65625 L 3.265625 -20.65625 C 2.171875 -20.65625 1.523438 -20.597656 1.328125 -20.484375 C 1.128906 -20.378906 0.972656 -20.28125 0.859375 -20.1875 L 0.796875 -20.203125 L 0.796875 -24.984375 L 0.859375 -25.046875 C 1.265625 -24.910156 2.375 -24.84375 4.1875 -24.84375 L 15.890625 -24.84375 C 16.984375 -24.84375 17.628906 -24.894531 17.828125 -25 C 18.035156 -25.113281 18.191406 -25.21875 18.296875 -25.3125 L 18.359375 -25.28125 L 18.359375 -20.5 L 18.296875 -20.453125 C 17.890625 -20.585938 16.785156 -20.65625 14.984375 -20.65625 L 12.171875 -20.65625 Z M 12.171875 0.109375 "></path></g></g></g><g fill="#d9d9d9" fill-opacity="1"><g transform="translate(200.18331, 297.622041)"><g><path d="M 15.703125 -4.484375 C 16.472656 -4.484375 17.007812 -4.554688 17.3125 -4.703125 L 17.390625 -4.6875 L 17.203125 0 L 3.21875 0 L 3.21875 -24.96875 C 3.550781 -24.945312 3.921875 -24.929688 4.328125 -24.921875 L 5.640625 -24.875 C 6.515625 -24.851562 7.460938 -24.84375 8.484375 -24.84375 C 11.328125 -24.84375 14.144531 -24.890625 16.9375 -24.984375 C 16.800781 -23.890625 16.734375 -22.425781 16.734375 -20.59375 C 16.734375 -20.394531 16.742188 -20.25 16.765625 -20.15625 L 16.734375 -20.09375 C 16.085938 -20.28125 15.164062 -20.375 13.96875 -20.375 L 8.09375 -20.375 L 8.09375 -15.609375 L 12.515625 -15.609375 C 13.878906 -15.609375 14.703125 -15.644531 14.984375 -15.71875 L 15.03125 -11.109375 C 14.4375 -11.171875 13.664062 -11.203125 12.71875 -11.203125 L 8.09375 -11.203125 L 8.09375 -4.484375 Z M 15.703125 -4.484375 "></path></g></g></g><g fill="#d9d9d9" fill-opacity="1"><g transform="translate(224.128743, 297.622041)"><g><path d="M 8.25 0.109375 C 7.65625 0.0351562 6.503906 0 4.796875 0 L 3.3125 0 L 3.3125 -24.921875 C 4.101562 -24.867188 4.976562 -24.84375 5.9375 -24.84375 C 6.894531 -24.84375 7.570312 -24.890625 7.96875 -24.984375 L 14.25 -14.328125 L 20.28125 -24.984375 C 20.675781 -24.890625 21.4375 -24.84375 22.5625 -24.84375 C 23.6875 -24.84375 24.644531 -24.867188 25.4375 -24.921875 L 25.4375 0 L 23.9375 0 C 22.238281 0 21.085938 0.0351562 20.484375 0.109375 L 20.484375 -16.625 L 14.375 -5.703125 L 8.25 -15.75 Z M 8.25 0.109375 "></path></g></g></g><g fill="#d9d9d9" fill-opacity="1"><g transform="translate(257.655351, 297.622041)"><g><path d="M 18.203125 -23.453125 L 17.859375 -17.96875 L 17.71875 -17.9375 C 16.800781 -19.3125 15.234375 -20.207031 13.015625 -20.625 C 12.316406 -20.757812 11.644531 -20.828125 11 -20.828125 C 10.363281 -20.828125 9.816406 -20.769531 9.359375 -20.65625 C 8.910156 -20.539062 8.523438 -20.378906 8.203125 -20.171875 C 7.515625 -19.722656 7.171875 -19.140625 7.171875 -18.421875 C 7.171875 -17.472656 7.46875 -16.757812 8.0625 -16.28125 C 8.8125 -15.707031 10.050781 -15.304688 11.78125 -15.078125 C 13.507812 -14.847656 14.894531 -14.535156 15.9375 -14.140625 C 16.988281 -13.742188 17.851562 -13.238281 18.53125 -12.625 C 19.800781 -11.476562 20.4375 -9.859375 20.4375 -7.765625 C 20.4375 -5.023438 19.398438 -2.914062 17.328125 -1.4375 C 15.566406 -0.164062 13.335938 0.46875 10.640625 0.46875 C 8.472656 0.46875 6.332031 0.0546875 4.21875 -0.765625 C 3.519531 -1.035156 2.910156 -1.351562 2.390625 -1.71875 L 2.59375 -7.953125 L 2.671875 -8.015625 C 4.210938 -5.347656 6.742188 -4.015625 10.265625 -4.015625 C 12.773438 -4.015625 14.429688 -4.617188 15.234375 -5.828125 C 15.515625 -6.234375 15.65625 -6.6875 15.65625 -7.1875 C 15.65625 -7.695312 15.570312 -8.117188 15.40625 -8.453125 C 15.25 -8.785156 14.984375 -9.066406 14.609375 -9.296875 C 13.878906 -9.773438 12.660156 -10.09375 10.953125 -10.25 C 9.253906 -10.414062 7.863281 -10.722656 6.78125 -11.171875 C 5.695312 -11.617188 4.832031 -12.171875 4.1875 -12.828125 C 3.007812 -14.023438 2.421875 -15.695312 2.421875 -17.84375 C 2.421875 -20.050781 3.203125 -21.84375 4.765625 -23.21875 C 6.347656 -24.613281 8.476562 -25.3125 11.15625 -25.3125 C 13.84375 -25.3125 16.191406 -24.691406 18.203125 -23.453125 Z M 18.203125 -23.453125 "></path></g></g></g><g clip-path="url(#461fb369cf)"><path fill="#fecb00" d="M 171.503906 131.265625 L 179.5 136.726562 C 179.910156 135.976562 180.707031 135.46875 181.617188 135.46875 L 193.8125 135.46875 C 195.140625 135.46875 196.226562 136.554688 196.226562 137.882812 L 196.226562 150.078125 C 196.226562 151.40625 195.140625 152.488281 193.8125 152.488281 L 187.902344 152.488281 L 182.769531 162.613281 L 183.796875 162.613281 C 185.503906 162.613281 186.898438 164.007812 186.898438 165.714844 L 186.898438 172.492188 L 204.121094 172.773438 L 204.121094 172.351562 C 204.121094 171.34375 204.945312 170.511719 205.960938 170.511719 L 215.25 170.511719 C 216.261719 170.511719 217.089844 171.339844 217.089844 172.351562 L 217.089844 181.644531 C 217.089844 182.65625 216.261719 183.484375 215.25 183.484375 L 205.960938 183.484375 C 204.945312 183.484375 204.121094 182.660156 204.121094 181.644531 L 204.121094 177.355469 L 186.898438 177.074219 L 186.898438 181.398438 C 186.898438 183.105469 185.503906 184.5 183.796875 184.5 L 168.117188 184.5 C 166.40625 184.5 165.011719 183.105469 165.011719 181.398438 L 165.011719 165.71875 C 165.011719 164.007812 166.40625 162.613281 168.117188 162.613281 L 177.628906 162.613281 L 182.761719 152.492188 L 181.617188 152.492188 C 180.289062 152.492188 179.203125 151.410156 179.203125 150.082031 L 179.203125 142.078125 L 171.039062 136.5 C 170.382812 137.699219 169.113281 138.515625 167.65625 138.515625 L 148.207031 138.515625 C 146.089844 138.515625 144.359375 136.78125 144.359375 134.660156 L 144.359375 115.210938 C 144.359375 113.09375 146.09375 111.363281 148.207031 111.363281 L 167.65625 111.363281 C 169.777344 111.363281 171.507812 113.097656 171.507812 115.210938 L 171.507812 131.265625 Z M 128.851562 107.304688 L 118.214844 120.714844 L 118.214844 133.925781 C 118.214844 134.570312 117.992188 135.164062 117.617188 135.636719 L 125.273438 144.789062 L 138.679688 144.789062 C 140.796875 144.789062 142.527344 146.519531 142.527344 148.640625 L 142.527344 168.089844 C 142.527344 170.210938 140.796875 171.941406 138.679688 171.941406 L 119.230469 171.941406 C 117.109375 171.941406 115.378906 170.210938 115.378906 168.089844 L 115.378906 148.640625 C 115.378906 146.519531 117.113281 144.789062 119.230469 144.789062 L 119.292969 144.789062 L 112.511719 136.683594 L 101.519531 136.683594 C 100.003906 136.683594 98.761719 135.445312 98.761719 133.929688 L 98.761719 119.992188 C 98.761719 118.476562 100.003906 117.234375 101.519531 117.234375 L 115.121094 117.234375 L 123.097656 107.175781 C 121.457031 106.738281 120.238281 105.234375 120.238281 103.457031 L 120.238281 84.007812 C 120.238281 81.886719 121.972656 80.152344 124.089844 80.152344 L 143.535156 80.152344 C 145.65625 80.152344 147.386719 81.886719 147.386719 84.007812 L 147.386719 103.457031 C 147.386719 105.574219 145.652344 107.304688 143.535156 107.304688 Z M 224.421875 203.144531 L 236.351562 189.960938 L 236.347656 189.800781 L 236.347656 167.449219 C 236.347656 166.257812 236.824219 165.171875 237.597656 164.378906 L 231.316406 157.09375 C 231.109375 157.128906 230.886719 157.148438 230.667969 157.148438 L 211.214844 157.148438 C 209.09375 157.148438 207.363281 155.414062 207.363281 153.292969 L 207.363281 133.847656 C 207.363281 131.726562 209.097656 129.996094 211.214844 129.996094 L 230.667969 129.996094 C 232.785156 129.996094 234.515625 131.730469 234.515625 133.847656 L 234.515625 153.292969 C 234.515625 153.453125 234.503906 153.605469 234.488281 153.757812 L 242.476562 163.03125 L 263.113281 163.03125 C 265.546875 163.03125 267.535156 165.019531 267.535156 167.449219 L 267.535156 189.796875 C 267.535156 192.230469 265.542969 194.21875 263.113281 194.21875 L 240.765625 194.21875 C 240.140625 194.21875 239.539062 194.085938 238.996094 193.847656 L 228.027344 205.972656 L 228.027344 219.144531 C 228.027344 220.597656 226.835938 221.785156 225.386719 221.785156 L 212.03125 221.785156 C 210.574219 221.785156 209.386719 220.597656 209.386719 219.144531 L 209.386719 205.785156 C 209.386719 204.332031 210.578125 203.144531 212.03125 203.144531 Z M 261.300781 127.363281 L 254.042969 113.375 L 244.421875 113.375 C 242.871094 113.375 241.609375 112.109375 241.609375 110.5625 L 241.609375 96.34375 C 241.609375 94.792969 242.871094 93.53125 244.421875 93.53125 L 258.640625 93.53125 C 260.1875 93.53125 261.453125 94.792969 261.453125 96.34375 L 261.453125 110.5625 C 261.453125 111.925781 260.472656 113.070312 259.175781 113.324219 L 266.460938 127.363281 L 273.433594 127.363281 C 274.980469 127.363281 276.246094 128.628906 276.246094 130.175781 L 276.246094 144.394531 C 276.246094 145.945312 274.980469 147.207031 273.433594 147.207031 L 259.214844 147.207031 C 257.667969 147.207031 256.402344 145.945312 256.402344 144.394531 L 256.402344 130.175781 C 256.402344 128.628906 257.667969 127.363281 259.214844 127.363281 Z M 171.097656 64.753906 L 190.546875 64.753906 C 192.667969 64.753906 194.398438 66.488281 194.398438 68.601562 L 194.398438 88.054688 C 194.398438 90.175781 192.664062 91.90625 190.546875 91.90625 L 186.917969 91.90625 L 190.960938 101.839844 L 201.101562 101.839844 C 201.285156 101.839844 201.460938 101.855469 201.628906 101.890625 L 207.753906 96.71875 C 207.015625 96.019531 206.550781 95.027344 206.550781 93.929688 L 206.550781 74.480469 C 206.550781 72.363281 208.285156 70.628906 210.402344 70.628906 L 229.855469 70.628906 C 231.972656 70.628906 233.703125 72.363281 233.703125 74.480469 L 233.703125 93.929688 C 233.703125 96.050781 231.96875 97.78125 229.855469 97.78125 L 213.601562 97.78125 L 203.910156 105.964844 L 203.910156 118.871094 C 203.910156 120.417969 202.644531 121.683594 201.097656 121.683594 L 186.878906 121.683594 C 185.332031 121.683594 184.066406 120.417969 184.066406 118.871094 L 184.066406 104.652344 C 184.066406 103.386719 184.90625 102.316406 186.058594 101.960938 L 181.960938 91.90625 L 171.09375 91.90625 C 168.976562 91.90625 167.242188 90.171875 167.242188 88.054688 L 167.242188 68.601562 C 167.25 66.488281 168.980469 64.753906 171.097656 64.753906 Z M 171.097656 64.753906 " fill-opacity="1" fill-rule="evenodd"></path></g></svg><style>@media (prefers-color-scheme: light) { :root { filter: none; } }
@media (prefers-color-scheme: dark) { :root { filter: none; } }
</style></svg>